# xmcd
#
# Track frame offsets: 
#        150
#        14620
#        27668
#        40030
#        51851
#        64507
#        77033
#        90356
#        104212
#        113485
#        126063
#        141972
#
# Disc length: 2084 seconds
#
# Revision: 0
# Processed by: cddbd v1.5.1PL0 Copyright (c) Steve Scherf et al.
# Submitted via: ExactAudioCopy v0.95a5
#
DISCID=9d08220c
DTITLE=Jillian Marie - Headin' In The Right Direction
DYEAR=2000
DGENRE=Country
TTITLE0=Headin' In the Right Direction
TTITLE1=Too Good To Be True
TTITLE2=You Can Bet Your Boots
TTITLE3=A Dreamer
TTITLE4=Country Boogie
TTITLE5=Temporarily True
TTITLE6=Can't Thank 'Em Enough
TTITLE7=Talkin' About Love
TTITLE8=I'm Going Under
TTITLE9=People Person
TTITLE10=Concrete Cowgirl
TTITLE11=Queen of Broken Hearts
EXTD=
EXTT0=
EXTT1=
EXTT2=
EXTT3=
EXTT4=
EXTT5=
EXTT6=
EXTT7=
EXTT8=
EXTT9=
EXTT10=
EXTT11=
PLAYORDER=
